# xmcd
#
# Track frame offsets:
#	150
#	39645
#	72503
#	100037
#	128029
#	152281
#	188178
#	222718
#	247436
#	279835
#	311803
#
# Disc length: 4540 seconds
#
# Revision: 1
# Processed by: cddbd v1.5.2PL0 Copyright (c) Steve Scherf et al.
# Submitted via: audiograbber 1.83.01
#
DISCID=a411ba0b
DTITLE=Various Artist - D.Trance 60 CD 1
DYEAR=2012
DGENRE=Progressive Trance
TTITLE0=DJ Yorrin - Fight For Survival (Original Mix)
TTITLE1=DJ Snowman - Music Experience (Original Mix)
TTITLE2=Richard Sebastian - Delusional (Original Mix)
TTITLE3=Spaceshokkers - Angelius (DJ Passion Remix)
TTITLE4=Hemstock and Alcheh - The Dragger (Original Mix)
TTITLE5=DGOH - Next Wave (Original Mix)
TTITLE6=Kaizer - Tears In The Rain (Martin Merkel Mix)
TTITLE7=Damian Wasse - Rise Of Nation (Original Mix)
TTITLE8=Nick The Kid - Enigma 2012 (DJ Husband Remix)
TTITLE9=Maarten De Jong - Raw (Original Mix)
TTITLE10=John O'Callaghan - Boban (Original Mix)
EXTD=
EXTT0=
EXTT1=
EXTT2=
EXTT3=
EXTT4=
EXTT5=
EXTT6=
EXTT7=
EXTT8=
EXTT9=
EXTT10=
PLAYORDER=
